<svg xmlns="http://www.w3.org/2000/svg" viewBox="0 0 192 192" fill="none">
  <rect width="192" height="192" rx="24" fill="#1E3A5F"/>
  <path d="M96 40c-30.9 0-56 25.1-56 56 0 20.5 11 38.5 27.5 48.5l6.5-24.5-18 14c2.5 4 5.5 7.5 9 10 3.5 2.5 7.5 4.5 12 5.5v-26c-2-.5-4-1-5.5-2-1.5-1-2.5-2.5-3.5-4-1-1.5-1.5-3-2-5 0-1.5-.5-3-.5-4.5 0-2 .5-4 1-6 .5-2 1.5-3.5 2.5-5 1-1.5 2.5-2.5 4-3.5 1.5-1 3.5-1.5 5-2 2-.5 4-.5 6-.5 30.9 0 56-25.1 56-56s-25.1-56-56-56z" fill="#2563EB"/>
  <path d="M96 48c26.5 0 48 21.5 48 48 0 17.5-9.5 33-24 41.5l-4.5-17-13.5 10.5c1.5 3 3.5 5.5 6 7.5 2.5 2 5.5 3.5 8.5 4v-18c-1.5-.5-2.5-1-4-1.5-1.5-.5-2.5-1.5-3-2.5-1-1-1.5-2.5-1.5-4 0-1.5 0-3 .5-4.5.5-1.5 1-3 2-4 1-1 2-2 3-2.5 1-.5 2.5-1 4-1.5 1.5-.5 3-.5 4.5-.5-26.5 0-48-21.5-48-48s21.5-48 48-48z" fill="#10B981"/>
  <circle cx="96" cy="96" r="20" fill="white"/>
  <path d="M90 86l20 10-20 10-6-10 6-10z" fill="#1E3A5F"/>
</svg>